<svg width="456" height="456" viewBox="0 0 456 456" fill="none" xmlns="http://www.w3.org/2000/svg">
<path d="M374.89 231.062H377.394L377.052 226.389C376.599 220.213 373.716 215.801 368.933 213.965C365.849 212.781 362.655 212.074 359.696 211.919C358.999 211.883 358.355 211.867 357.727 211.867C352.698 211.867 348.802 213.058 345.466 215.617C344.937 216.022 344.444 216.463 343.988 216.938V211.68H343.405L344.055 211.264V198.998L334.934 193L324.599 198.805V211.662L324.665 211.702V217.082C323.789 215.772 322.664 214.586 321.314 213.564C318.95 211.774 316.035 210.827 312.885 210.827C310.672 210.827 308.502 211.302 306.535 212.187V211.765H287.777V217.541C287.558 217.282 287.332 217.03 287.102 216.787C283.575 213.075 278.221 210.944 272.41 210.944C269.683 210.944 267.056 211.414 264.675 212.294C264.697 210.039 264.262 208.042 263.946 206.593C263.286 203.566 260.772 201.099 258.716 200.086C257.095 199.289 255.408 198.884 253.704 198.884C249.987 198.884 246.513 200.783 243.923 204.229C242.937 205.542 241.957 206.881 241.009 208.175C240.153 209.344 239.268 210.552 238.393 211.721C237.847 212.45 237.296 213.175 236.731 213.913C234.761 211.257 232.889 208.732 230.967 206.208L230.667 205.812C229.617 204.425 228.427 202.85 226.87 201.591C224.676 199.811 222.269 198.908 219.717 198.908C217.863 198.908 215.987 199.397 214.142 200.362C209.006 203.044 209.016 208.67 209.021 211.693C209.021 212.051 209.022 212.409 209.022 212.769C208.145 211.927 206.855 211.279 204.962 211.279C203.804 211.279 202.464 211.491 200.608 211.786L198.159 212.177L198.14 212.247C195.548 210.996 192.83 210.348 190.098 210.348C184.847 210.348 179.829 212.691 176.336 216.772C176.128 217.015 175.926 217.264 175.732 217.517V210.613H172.427V195.816L157.864 204.626V211.356H154.707V213.827C154.42 213.629 154.116 213.44 153.797 213.262C150.214 211.264 146.581 210.253 142.998 210.253C139.215 210.253 135.478 211.378 131.894 213.598C129.678 214.971 128.03 217.062 127.081 219.545C126.474 218.066 125.663 216.704 124.666 215.511C122.381 212.774 119.213 211.041 115.746 210.627C114.937 210.532 114.139 210.482 113.374 210.482C110.89 210.482 108.62 210.985 106.578 211.98L106.581 211.705H102.704C101.585 211.705 100.452 211.707 99.3504 211.709C98.3062 211.711 97.2892 211.711 96.3347 211.711H92.563V194.083L78 203.523V256.092H92.563V255.61H106.426V251.291C106.426 249.418 106.413 247.548 106.401 245.742C106.372 241.205 106.343 236.921 106.495 232.613C106.562 230.74 107.006 228.713 107.715 227.054C108.153 226.032 109.5 225.262 110.848 225.262C111.072 225.262 111.285 225.284 111.484 225.327C113.199 225.705 113.819 226.495 113.937 228.458C114.213 233.018 114.237 237.741 114.258 242.31C114.263 243.381 114.269 244.45 114.277 245.518C114.303 248.871 114.304 248.928 114.46 251.59L114.679 255.334L118.009 255.615C118.066 255.619 119.456 255.734 121.891 255.734C122.583 255.734 123.303 255.725 124.031 255.707L124.167 255.703L124.303 255.689C125.35 255.577 126.069 255.046 126.367 254.818L127.648 254.001L128.055 252.407C128.164 252.081 128.4 251.356 128.4 250.429C128.4 250.264 128.4 250.096 128.401 249.931C129.148 250.964 130.03 251.896 131.044 252.722C134.026 255.151 138.515 256.544 143.36 256.544C148.466 256.544 153.165 255.034 156.249 252.399C156.835 251.899 157.375 251.354 157.864 250.771V256.092H172.691V244.448C173.094 245.43 173.56 246.377 174.089 247.28C176.309 251.068 179.533 253.754 183.674 255.268C185.958 256.101 188.173 256.524 190.262 256.524C192.555 256.524 194.731 256.025 196.778 255.037L196.854 255.754H200.274C200.798 255.754 201.296 255.737 201.78 255.723C202.22 255.709 202.635 255.696 203.032 255.696C203.524 255.696 203.912 255.716 204.251 255.761C204.632 255.811 204.985 255.835 205.329 255.835C207.216 255.835 208.458 255.061 209.221 254.311C209.666 257.182 210.866 259.018 211.907 260.112C213.728 262.028 216.208 263 219.277 263H219.291C225.685 262.993 229.532 258.904 229.58 252.063C229.602 248.786 229.601 245.464 229.599 242.251V239.598L236.249 248.243L242.774 239.762V240.818C242.772 244.538 242.77 248.381 242.785 252.169C242.794 254.838 243.328 256.959 244.417 258.653C245.636 260.551 247.466 261.773 249.857 262.282C250.828 262.489 251.845 262.595 252.881 262.595C254.481 262.595 256.091 262.338 257.538 261.854C260.282 260.934 262.381 258.548 263.152 255.471C263.225 255.176 263.286 254.877 263.334 254.579C265.975 255.757 269.001 256.36 272.366 256.373H272.462C279.039 256.373 284.065 254.195 287.777 249.722V254.625H306.817V250.307C306.817 248.66 306.815 247.037 306.812 245.428C306.806 241.052 306.799 236.917 306.841 232.735C306.854 231.636 306.974 230.682 307.188 229.977C307.283 229.669 307.369 229.57 307.369 229.566C307.376 229.565 307.453 229.527 307.643 229.521C307.672 229.642 307.702 229.818 307.72 230.063C307.803 231.263 307.791 232.532 307.776 233.874C307.77 234.423 307.765 234.97 307.765 235.519C307.77 238.99 307.768 242.461 307.768 245.963V254.561H324.665V255.674H343.988V251.698C344.783 252.443 345.687 253.099 346.693 253.661C350.653 255.871 354.731 256.992 358.812 256.992C362.892 256.992 366.776 255.937 370.729 253.859C374.031 252.122 377.973 248.385 378 240.442C378.013 236.671 376.933 233.471 374.89 231.062ZM141.028 223.752C141.75 223.315 142.445 223.094 143.094 223.094C144.886 223.094 146.028 224.85 146.55 225.899C146.613 226.025 146.702 226.196 146.821 226.399C146.132 226.162 145.451 225.953 144.793 225.752C143.288 225.287 141.862 224.85 140.732 224.191C140.709 224.172 140.685 224.148 140.66 224.121C140.788 223.959 140.925 223.819 141.028 223.752ZM147.117 241.646C147.106 241.929 147.093 242.251 145.829 242.735C144.87 243.104 144.004 243.291 143.254 243.291C142.404 243.291 140.455 243.291 138.701 238.744C139.444 238.959 140.181 239.168 140.908 239.373C142.721 239.884 144.433 240.368 146.13 240.941C146.776 241.158 147.037 241.378 147.112 241.454C147.117 241.489 147.12 241.552 147.117 241.646ZM273.29 237.066C273.226 237.345 273.162 237.592 273.091 237.819C272.992 238.143 272.958 238.251 272.391 238.251C272.362 238.251 272.334 238.251 272.305 238.249C271.757 238.231 271.698 238.114 271.554 237.666C270.711 235.04 270.7 232.46 271.52 229.779C271.682 229.252 271.799 229.118 272.374 229.104H272.423C273.006 229.102 273.074 229.271 273.184 229.687C273.256 229.96 273.322 230.259 273.384 230.601C273.785 232.778 273.751 235.013 273.29 237.066Z" fill="white"/>
<path d="M245.738 229.588C242.615 233.647 239.492 237.707 236.249 241.921C233.006 237.705 229.92 233.692 226.832 229.678C226.616 229.709 226.399 229.739 226.183 229.77C226.041 230.884 225.781 231.997 225.773 233.113C225.732 239.512 225.781 245.912 225.735 252.311C225.703 256.788 223.549 258.96 219.287 258.964C215.148 258.967 212.892 256.632 212.884 252.203C212.861 238.792 212.884 225.379 212.863 211.968C212.858 208.99 212.922 206.044 215.763 204.56C218.819 202.962 221.878 203.152 224.622 205.375C225.925 206.431 226.987 207.905 228.046 209.297C230.874 213.015 233.642 216.79 236.678 220.87C238.345 218.694 239.859 216.758 241.336 214.784C243.192 212.303 245 209.774 246.863 207.296C249.513 203.768 253.424 202.479 257.175 204.326C258.445 204.95 259.906 206.49 260.213 207.905C261.046 211.729 261.501 215.342 258.384 218.906C251.264 227.053 251.473 240.779 258.291 249.295C260.652 252.245 259.797 256.876 256.44 258.001C254.605 258.617 252.457 258.726 250.573 258.325C247.713 257.715 246.642 255.793 246.629 252.435C246.603 245.86 246.627 239.287 246.614 232.712C246.613 231.79 246.521 230.867 246.472 229.946C246.227 229.827 245.983 229.709 245.738 229.59V229.588Z" fill="#EC7625"/>
<path d="M200.456 218.978C200.728 217.94 200.941 217.127 201.146 216.348C205.229 215.699 207.27 217.573 207.27 221.969C207.27 230.905 207.219 239.841 207.306 248.777C207.326 250.994 206.839 252.038 204.698 251.755C203.257 251.566 201.78 251.719 200.275 251.719C200.137 250.395 200.031 249.378 199.863 247.762C195.383 252.759 190.337 253.441 184.861 251.442C181.729 250.3 179.137 248.326 177.3 245.189C172.941 237.747 173.791 226.257 179.105 220.049C183.505 214.908 192.275 212.238 200.456 218.977V218.978ZM189.648 225.951C190.569 227.771 191.295 229.412 192.193 230.923C193.18 232.582 193.242 234.072 192.233 235.764C191.304 237.322 190.574 239.03 189.724 240.737C192.882 241.786 194.4 241.356 195.793 239.231C198.697 234.796 198.784 232.467 196.205 228.13C194.536 225.322 193.354 224.884 189.648 225.953V225.951ZM182.509 225.64C183.559 227.715 184.277 229.354 185.177 230.855C186.213 232.58 186.295 234.088 185.172 235.848C184.229 237.326 183.575 239.039 182.773 240.691C186.128 241.779 187.989 240.685 189.786 237.768C192.435 233.468 190.491 230.446 188.5 227.135C187.03 224.69 184.967 225.645 182.507 225.64H182.509Z" fill="#3C5174"/>
<path d="M302.973 250.591H291.621V216.367H302.691C302.691 217.663 302.752 218.95 302.752 220.474C303.417 219.815 304.173 219.25 304.591 218.82C308.389 214.919 315.018 214.287 319.166 217.427C321.434 219.144 322.996 221.546 323.052 224.568C323.21 233.142 323.108 241.723 323.108 250.524H311.612C311.612 245.558 311.615 240.678 311.61 235.796C311.609 233.867 311.685 231.931 311.553 230.013C311.365 227.285 310.084 225.638 308.061 225.498C305.859 225.345 304.262 226.538 303.554 228.857C303.159 230.149 303.013 231.591 302.999 232.969C302.939 238.743 302.975 244.518 302.975 250.589L302.973 250.591Z" fill="#3C5174"/>
<path d="M272.377 252.34C264.528 252.308 259.219 248.684 256.706 241.639C254.041 234.162 255.54 225.325 260.332 220.245C266.232 213.992 278.545 213.981 284.472 220.224C290.494 226.565 291.09 238.63 285.685 246.132C282.267 250.877 277.582 252.356 272.376 252.34H272.377ZM277.015 238.409C277.634 235.663 277.658 232.787 277.148 230.014C277.07 229.586 276.979 229.162 276.868 228.744C276.218 226.284 274.483 225.017 272.288 225.071C270.228 225.122 268.614 226.273 267.883 228.661C266.781 232.266 266.791 235.85 267.936 239.417C268.644 241.621 270.129 242.78 272.185 242.852C274.342 242.927 276.008 241.828 276.721 239.523C276.834 239.157 276.931 238.787 277.014 238.411L277.015 238.409Z" fill="#3C5174"/>
<path d="M343.486 240.87C346.839 240.87 349.947 240.813 353.051 240.926C353.584 240.946 354.228 241.59 354.597 242.137C356.403 244.809 358.381 245.626 361.105 244.329C361.89 243.955 362.841 242.798 362.862 241.972C362.883 241.169 361.949 239.924 361.187 239.589C359.467 238.839 357.575 238.607 355.788 238.025C353.259 237.205 350.597 236.622 348.285 235.296C342.694 232.086 342.426 223.459 347.631 219.468C351.235 216.704 355.388 216.304 359.516 216.519C362.266 216.661 365.079 217.334 367.689 218.336C371.046 219.624 372.891 222.567 373.218 227.027C369.952 227.027 366.792 227.112 363.642 226.952C363.053 226.921 362.451 225.962 361.943 225.341C360.442 223.506 358.631 223.016 356.663 224.028C355.991 224.371 355.216 225.372 355.184 226.111C355.154 226.797 355.934 227.938 356.563 228.17C358.546 228.899 360.641 229.228 362.662 229.84C364.832 230.495 367.041 231.098 369.102 232.077C372.417 233.649 374.168 236.57 374.153 240.712C374.139 245.013 372.715 248.331 369.097 250.233C362.169 253.877 355.264 253.911 348.4 250.08C345.192 248.289 343.507 245.374 343.485 240.872L343.486 240.87Z" fill="#3C5174"/>
<path d="M102.582 251.575H96.3347V216.314C98.2966 216.314 100.526 216.308 102.704 216.308C102.693 217.731 102.687 219.005 102.717 220.765C103.369 220.163 103.854 219.808 104.238 219.346C107.272 215.691 111.146 214.705 115.342 215.205C120.602 215.831 124.417 220.342 124.532 226.264C124.69 234.409 124.57 242.558 124.559 250.706C124.559 250.949 124.442 251.194 124.389 251.399C124.21 251.514 124.083 251.658 123.947 251.672C120.341 251.764 118.297 251.592 118.297 251.592C118.197 249.882 118.138 247.94 118.122 245.765C118.079 239.991 118.122 234.204 117.775 228.449C117.525 224.323 115.475 222.088 112.225 221.374C109.24 220.717 105.608 222.302 104.253 225.467C103.308 227.675 102.743 230.272 102.656 232.724C102.437 238.92 102.584 245.133 102.584 251.574L102.582 251.575Z" fill="#3C5174"/>
<path d="M156.39 226.011C154.667 226.011 153.165 226.212 151.741 225.924C151.043 225.784 150.295 224.857 149.906 224.076C147.58 219.403 143.4 217.696 139.204 220.238C137.953 220.996 136.629 222.863 136.515 224.337C136.417 225.604 137.739 227.587 138.893 228.271C140.982 229.507 143.41 230.025 145.703 230.817C147.854 231.558 150.083 232.075 152.158 233.027C158.288 235.839 159.217 244.728 153.924 249.247C148.966 253.479 138.35 253.625 133.299 249.511C130.508 247.237 129.279 244.072 129.157 240.061H134.921C137.341 246.915 141.369 249.299 147.073 247.109C149.182 246.299 150.847 244.876 150.956 242.123C151.068 239.26 149.35 237.804 147.234 237.09C143.592 235.863 139.848 235.013 136.212 233.768C133.168 232.726 130.818 230.729 130.158 226.876C129.526 223.182 130.817 219.481 133.749 217.665C139.797 213.92 145.967 214.003 152.089 217.417C155.031 219.056 156.096 222.088 156.39 226.011Z" fill="#3C5174"/>
<path d="M189.648 225.951C193.356 224.882 194.536 225.322 196.205 228.129C198.784 232.467 198.697 234.796 195.794 239.229C194.4 241.356 192.882 241.785 189.724 240.736C190.574 239.028 191.303 237.32 192.233 235.762C193.242 234.07 193.18 232.58 192.193 230.921C191.295 229.41 190.569 227.769 189.648 225.95V225.951Z" fill="white"/>
<path d="M182.509 225.64C184.967 225.645 187.031 224.69 188.502 227.135C190.491 230.446 192.437 233.468 189.788 237.768C187.991 240.685 186.13 241.779 182.774 240.69C183.577 239.037 184.23 237.326 185.174 235.848C186.298 234.09 186.215 232.58 185.178 230.855C184.277 229.356 183.561 227.717 182.51 225.64H182.509Z" fill="white"/>
<path d="M277.15 230.014C277.659 232.789 277.633 235.663 277.017 238.409C276.932 238.785 276.836 239.157 276.724 239.521C276.011 241.826 274.344 242.925 272.188 242.85C270.132 242.778 268.647 241.621 267.939 239.415C266.794 235.846 266.784 232.262 267.886 228.659C268.616 226.272 270.229 225.12 272.29 225.07C274.486 225.016 276.221 226.282 276.871 228.742C276.981 229.16 277.073 229.584 277.151 230.013L277.15 230.014Z" fill="white"/>
<path d="M88.7195 201.846L81.844 206.301V252.059H88.7195V201.846Z" fill="#3C5174"/>
<path d="M161.707 207.491L168.583 203.331V215.216H171.889V220.414H168.847V252.059H161.707V220.564H158.551V215.959H161.707V207.491Z" fill="#3C5174"/>
<path d="M328.443 201.76L334.79 198.193L340.211 201.76V209.038L334.327 212.801L328.443 209.335V201.76Z" fill="#EC7625"/>
<path d="M340.144 216.283H328.509V251.64H340.144V216.283Z" fill="#3C5174"/>
</svg>
