<svg width="184" height="184" viewBox="0 0 184 184" fill="none" xmlns="http://www.w3.org/2000/svg">
<path d="M162.497 92.3735H163.707L163.542 90.3632C163.323 87.7065 161.929 85.8085 159.618 85.0189C158.127 84.5096 156.583 84.2053 155.153 84.1388C154.816 84.1233 154.505 84.1163 154.202 84.1163C151.771 84.1163 149.888 84.6288 148.275 85.7295C148.02 85.9037 147.781 86.0933 147.561 86.2977V84.0358H147.279L147.593 83.857V78.58L143.185 76L138.19 78.4972V84.0281L138.221 84.0451V86.3596C137.798 85.7961 137.254 85.286 136.602 84.8463C135.459 84.0761 134.05 83.6689 132.528 83.6689C131.458 83.6689 130.409 83.8733 129.459 84.2541V84.0722H120.392V86.557C120.286 86.4456 120.177 86.3372 120.066 86.2327C118.361 84.6357 115.773 83.7192 112.965 83.7192C111.647 83.7192 110.377 83.9212 109.226 84.2998C109.237 83.3298 109.026 82.4706 108.874 81.8475C108.555 80.5454 107.34 79.4842 106.346 79.0484C105.562 78.7054 104.747 78.5313 103.924 78.5313C102.127 78.5313 100.448 79.3479 99.1963 80.8303C98.7195 81.3954 98.2458 81.9713 97.7875 82.5279C97.3741 83.031 96.9461 83.5505 96.5234 84.0536C96.2594 84.3671 95.9932 84.6791 95.7199 84.9965C94.7678 83.8539 93.8629 82.7679 92.934 81.6818L92.7892 81.5115C92.2814 80.9147 91.7063 80.2374 90.9539 79.6955C89.8933 78.9299 88.7299 78.5413 87.4968 78.5413C86.6004 78.5413 85.6939 78.7519 84.8022 79.1668C82.3197 80.321 82.3243 82.7408 82.3266 84.0412C82.3266 84.1953 82.3274 84.3493 82.3274 84.5041C81.9032 84.1419 81.2801 83.8632 80.3651 83.8632C79.8054 83.8632 79.1575 83.9545 78.2603 84.0815L77.0768 84.2495L77.0675 84.2797C75.815 83.7417 74.5014 83.463 73.1808 83.463C70.6425 83.463 68.2173 84.4709 66.529 86.2265C66.4284 86.331 66.3309 86.4378 66.2372 86.547V83.5768H64.6395V77.2114L57.6007 81.0014V83.8965H56.075V84.9593C55.9364 84.8742 55.7893 84.7929 55.6353 84.7162C53.9036 83.857 52.1472 83.422 50.4156 83.422C48.5872 83.422 46.7813 83.9058 45.0489 84.861C43.9775 85.4516 43.181 86.3511 42.7227 87.4194C42.4293 86.7831 42.0369 86.1971 41.5554 85.6838C40.4508 84.5065 38.9196 83.761 37.2437 83.583C36.8528 83.5419 36.4673 83.5203 36.0973 83.5203C34.8967 83.5203 33.7998 83.737 32.8128 84.1651L32.8144 84.0466H30.9403C30.3992 84.0466 29.8519 84.0474 29.3194 84.0482C28.8147 84.049 28.3231 84.049 27.8618 84.049H26.0388V76.466L19 80.5269V103.141H26.0388V102.934H32.7393V101.076C32.7393 100.27 32.7331 99.4657 32.7269 98.6885C32.713 96.7371 32.699 94.894 32.7726 93.0408C32.8051 92.235 33.0195 91.3633 33.3624 90.6496C33.5738 90.2099 34.2248 89.8786 34.8766 89.8786C34.9849 89.8786 35.0879 89.8879 35.1839 89.9065C36.0129 90.0691 36.3125 90.4089 36.3698 91.2534C36.5029 93.215 36.5145 95.2469 36.5246 97.2123C36.5269 97.6729 36.53 98.1327 36.5339 98.5925C36.5463 100.035 36.547 100.059 36.6221 101.204L36.7282 102.815L38.3375 102.936C38.3654 102.938 39.0373 102.987 40.2139 102.987C40.5483 102.987 40.8966 102.983 41.2481 102.975L41.3139 102.974L41.3797 102.968C41.8859 102.92 42.2335 102.691 42.3775 102.593L42.9967 102.242L43.1934 101.556C43.246 101.416 43.3598 101.104 43.3598 100.705C43.3598 100.634 43.3598 100.562 43.3606 100.491C43.7213 100.935 44.1478 101.336 44.6378 101.691C46.0792 102.736 48.2489 103.335 50.5906 103.335C53.0583 103.335 55.3295 102.686 56.8204 101.553C57.1037 101.337 57.3646 101.103 57.6007 100.852V103.141H64.7672V98.132C64.9623 98.5546 65.1875 98.9618 65.443 99.3504C66.5159 100.98 68.0741 102.136 70.0759 102.787C71.1798 103.145 72.2503 103.327 73.2597 103.327C74.3682 103.327 75.4202 103.112 76.4095 102.687L76.4459 102.996H78.0993C78.3525 102.996 78.5932 102.989 78.827 102.982C79.0399 102.976 79.2403 102.971 79.4323 102.971C79.67 102.971 79.8573 102.979 80.0214 102.999C80.2056 103.02 80.3759 103.03 80.5424 103.03C81.4542 103.03 82.0549 102.698 82.4234 102.375C82.6386 103.61 83.2184 104.4 83.7215 104.87C84.6017 105.695 85.8007 106.113 87.2839 106.113H87.2909C90.381 106.11 92.2404 104.351 92.2636 101.408C92.2744 99.9983 92.2737 98.5693 92.2729 97.1868V96.0458L95.4869 99.7645L98.6405 96.1162V96.5706C98.6398 98.1707 98.639 99.8241 98.646 101.454C98.6506 102.602 98.9084 103.514 99.4348 104.243C100.024 105.059 100.909 105.585 102.064 105.804C102.533 105.893 103.025 105.939 103.526 105.939C104.299 105.939 105.077 105.828 105.777 105.62C107.103 105.224 108.118 104.198 108.49 102.874C108.526 102.747 108.555 102.619 108.578 102.49C109.855 102.997 111.317 103.256 112.943 103.262H112.99C116.169 103.262 118.598 102.325 120.392 100.401V102.51H129.595V100.652C129.595 99.9441 129.594 99.2459 129.592 98.5538C129.589 96.6713 129.586 94.8924 129.606 93.0934C129.613 92.6205 129.671 92.2102 129.774 91.9067C129.82 91.7744 129.862 91.7318 129.862 91.7303C129.865 91.7295 129.902 91.7132 129.994 91.7109C130.008 91.7628 130.023 91.8386 130.031 91.9439C130.072 92.4602 130.065 93.0059 130.058 93.5834C130.055 93.8195 130.053 94.0548 130.053 94.2909C130.055 95.7842 130.055 97.2774 130.055 98.7837V102.482H138.221V102.962H147.561V101.251C147.945 101.571 148.382 101.854 148.868 102.095C150.782 103.046 152.753 103.528 154.726 103.528C156.698 103.528 158.575 103.075 160.486 102.18C162.082 101.433 163.987 99.8257 164 96.4088C164.006 94.7864 163.484 93.41 162.497 92.3735ZM49.4635 89.2292C49.8126 89.0411 50.1485 88.9459 50.4621 88.9459C51.3283 88.9459 51.8802 89.7014 52.1325 90.1527C52.1627 90.2068 52.2061 90.2804 52.2634 90.3679C51.9305 90.2657 51.6015 90.1759 51.2834 90.0892C50.5557 89.8895 49.8668 89.7014 49.3203 89.418C49.3094 89.4095 49.2978 89.3995 49.2854 89.3879C49.3474 89.3182 49.4139 89.2578 49.4635 89.2292ZM52.4066 96.9267C52.4011 97.0482 52.395 97.1868 51.7842 97.395C51.3205 97.5537 50.9017 97.6342 50.5395 97.6342C50.1284 97.6342 49.1864 97.6342 48.3387 95.6781C48.6979 95.771 49.054 95.8608 49.4054 95.949C50.2817 96.1689 51.1092 96.3771 51.9297 96.6233C52.2417 96.7169 52.3679 96.8114 52.4042 96.8439C52.4066 96.8594 52.4081 96.8865 52.4066 96.9267ZM113.39 94.9567C113.359 95.0766 113.328 95.1827 113.294 95.2802C113.246 95.4196 113.23 95.466 112.956 95.466C112.942 95.466 112.928 95.466 112.914 95.4652C112.649 95.4575 112.621 95.4072 112.551 95.2144C112.144 94.085 112.138 92.975 112.535 91.8216C112.613 91.5948 112.669 91.5375 112.947 91.5313H112.971C113.253 91.5305 113.286 91.6033 113.339 91.7821C113.374 91.8998 113.406 92.0283 113.436 92.1754C113.629 93.112 113.613 94.0734 113.39 94.9567Z" fill="white"/>
<path d="M100.073 91.7395C98.5639 93.4859 97.0545 95.2322 95.4869 97.0451C93.9194 95.2314 92.4277 93.5052 90.9353 91.7782C90.8308 91.7914 90.7263 91.8045 90.6218 91.8177C90.5529 92.2969 90.4275 92.776 90.4236 93.256C90.4035 96.0086 90.4275 98.7621 90.405 101.515C90.3896 103.441 89.3484 104.375 87.2886 104.377C85.2883 104.378 84.1976 103.373 84.1937 101.468C84.1829 95.699 84.1937 89.9289 84.1837 84.1596C84.1814 82.8785 84.2123 81.6113 85.5856 80.9727C87.0625 80.2853 88.541 80.3674 89.867 81.3234C90.4971 81.7778 91.0104 82.4118 91.522 83.0109C92.8891 84.6102 94.2267 86.2342 95.6944 87.9891C96.5002 87.0532 97.2317 86.2203 97.9454 85.3711C98.8426 84.3036 99.7165 83.216 100.617 82.1501C101.898 80.6321 103.788 80.0779 105.601 80.8721C106.215 81.1407 106.921 81.8033 107.07 82.4118C107.472 84.0567 107.692 85.6111 106.186 87.1445C102.744 90.6488 102.845 96.5536 106.141 100.217C107.282 101.486 106.868 103.479 105.246 103.962C104.359 104.227 103.321 104.274 102.41 104.102C101.028 103.839 100.51 103.013 100.504 101.568C100.491 98.7396 100.503 95.9119 100.497 93.0833C100.496 92.687 100.452 92.2899 100.428 91.8936C100.31 91.8425 100.192 91.7914 100.073 91.7403V91.7395Z" fill="#EC7625"/>
<path d="M78.1868 87.1755C78.3184 86.7289 78.4214 86.379 78.5204 86.0438C80.4939 85.7646 81.4806 86.5707 81.4806 88.462C81.4806 92.3062 81.4558 96.1503 81.4976 99.9944C81.5077 100.948 81.2723 101.397 80.2374 101.276C79.5407 101.194 78.827 101.26 78.0993 101.26C78.0328 100.69 77.9817 100.253 77.9004 99.5578C75.7353 101.707 73.2961 102.001 70.6495 101.141C69.1354 100.649 67.8829 99.8001 66.995 98.4509C64.888 95.2492 65.299 90.3067 67.8674 87.6361C69.9939 85.4245 74.2328 84.2758 78.1868 87.1747V87.1755ZM72.9633 90.1751C73.4084 90.9577 73.759 91.6637 74.1933 92.3139C74.6701 93.0276 74.7003 93.6686 74.2126 94.3962C73.7637 95.0666 73.4107 95.8012 72.9997 96.5358C74.5262 96.9871 75.26 96.8021 75.9334 95.8879C77.3369 93.9797 77.3787 92.9781 76.1324 91.1125C75.3258 89.9042 74.7545 89.7161 72.9633 90.1759V90.1751ZM69.5124 90.0412C70.0202 90.9337 70.367 91.6389 70.802 92.2845C71.3028 93.0268 71.3423 93.6755 70.7997 94.4326C70.3437 95.0681 70.0279 95.805 69.6401 96.5157C71.2618 96.984 72.1613 96.5133 73.0298 95.2585C74.3102 93.4085 73.3704 92.1088 72.4082 90.6844C71.6976 89.6325 70.7006 90.0435 69.5116 90.0412H69.5124Z" fill="#3C5174"/>
<path d="M127.737 100.775H122.25V86.0523H127.601C127.601 86.6096 127.63 87.1631 127.63 87.8188C127.951 87.5354 128.317 87.2924 128.519 87.1074C130.355 85.4291 133.559 85.1574 135.564 86.5082C136.66 87.2467 137.415 88.2801 137.442 89.5798C137.518 93.2683 137.469 96.96 137.469 100.746H131.912C131.912 98.6095 131.914 96.5102 131.912 94.4101C131.911 93.5803 131.948 92.7474 131.884 91.9222C131.793 90.7487 131.174 90.0404 130.196 89.98C129.132 89.9142 128.36 90.4274 128.018 91.4252C127.827 91.981 127.756 92.6011 127.749 93.194C127.721 95.6781 127.738 98.1621 127.738 100.774L127.737 100.775Z" fill="#3C5174"/>
<path d="M112.949 101.527C109.155 101.513 106.589 99.9542 105.375 96.9236C104.086 93.7073 104.811 89.9057 107.127 87.7205C109.979 85.0305 115.93 85.0259 118.795 87.7112C121.705 90.4391 121.993 95.6293 119.381 98.8565C117.729 100.898 115.465 101.534 112.948 101.527H112.949ZM115.191 95.5341C115.49 94.3528 115.501 93.1159 115.255 91.923C115.217 91.7388 115.173 91.5561 115.12 91.3765C114.805 90.3183 113.967 89.7733 112.906 89.7966C111.91 89.8182 111.13 90.3137 110.777 91.3409C110.244 92.8914 110.249 94.4334 110.802 95.9676C111.145 96.9159 111.862 97.4144 112.856 97.4453C113.899 97.4778 114.704 97.0049 115.048 96.0133C115.103 95.8561 115.15 95.6967 115.19 95.5349L115.191 95.5341Z" fill="#3C5174"/>
<path d="M147.318 96.593C148.939 96.593 150.441 96.5683 151.941 96.617C152.199 96.6256 152.51 96.9027 152.688 97.138C153.561 98.2875 154.517 98.639 155.834 98.0808C156.213 97.9198 156.673 97.4221 156.683 97.0668C156.693 96.7215 156.242 96.1859 155.874 96.0419C155.042 95.7191 154.128 95.6192 153.264 95.3692C152.042 95.0162 150.755 94.7654 149.638 94.1949C146.935 92.8139 146.806 89.103 149.322 87.386C151.063 86.197 153.071 86.0252 155.066 86.1173C156.395 86.1785 157.755 86.468 159.016 86.8991C160.639 87.4534 161.531 88.719 161.689 90.638C160.11 90.638 158.583 90.6744 157.06 90.6055C156.775 90.5923 156.484 90.1797 156.239 89.9127C155.514 89.1231 154.638 88.9125 153.687 89.3476C153.362 89.4954 152.988 89.9258 152.972 90.244C152.958 90.5389 153.335 91.0297 153.639 91.1295C154.597 91.443 155.61 91.5847 156.587 91.8479C157.635 92.1297 158.703 92.389 159.699 92.8101C161.302 93.4866 162.148 94.743 162.141 96.5249C162.134 98.375 161.446 99.8024 159.697 100.621C156.348 102.188 153.011 102.203 149.693 100.555C148.143 99.7846 147.328 98.5306 147.318 96.5938L147.318 96.593Z" fill="#3C5174"/>
<path d="M30.8815 101.198H27.8618V86.0291C28.8101 86.0291 29.8876 86.0268 30.9404 86.0268C30.9349 86.6391 30.9319 87.1871 30.9466 87.9442C31.2616 87.6849 31.4962 87.5324 31.6819 87.3334C33.1481 85.7612 35.0206 85.337 37.0487 85.5522C39.5908 85.8216 41.4347 87.7623 41.4904 90.3098C41.5671 93.8133 41.509 97.3192 41.5036 100.824C41.5036 100.929 41.4471 101.034 41.4215 101.122C41.3348 101.172 41.2737 101.234 41.2079 101.24C39.4646 101.279 38.4769 101.205 38.4769 101.205C38.4284 100.47 38.4003 99.6342 38.3925 98.6986C38.3716 96.2145 38.3925 93.7251 38.2245 91.2495C38.1038 89.4745 37.1129 88.5131 35.5423 88.2058C34.0994 87.9233 32.3438 88.6052 31.6889 89.9669C31.2322 90.9167 30.9589 92.0337 30.9171 93.0888C30.8111 95.754 30.8823 98.4269 30.8823 101.197L30.8815 101.198Z" fill="#3C5174"/>
<path d="M56.8887 90.2006C56.0558 90.2006 55.3297 90.2873 54.6415 90.1635C54.304 90.1031 53.9425 89.7045 53.7544 89.3685C52.6304 87.3582 50.61 86.6236 48.5819 87.7174C47.9774 88.0433 47.3372 88.8468 47.2822 89.4807C47.235 90.0257 47.8736 90.8788 48.4318 91.1729C49.4412 91.7047 50.6147 91.9276 51.7232 92.2682C52.7628 92.5872 53.8403 92.8093 54.8428 93.2188C57.806 94.4287 58.2549 98.2527 55.6966 100.196C53.3 102.017 48.1693 102.08 45.7279 100.31C44.3786 99.3318 43.7849 97.9702 43.7261 96.2447H46.512C47.6817 99.1932 49.6285 100.219 52.385 99.2768C53.4045 98.9285 54.2096 98.3162 54.2622 97.1318C54.3164 95.9003 53.4858 95.274 52.4632 94.9667C50.7029 94.4388 48.8931 94.0734 47.1359 93.5377C45.6644 93.0895 44.5288 92.2303 44.2099 90.573C43.9041 88.9838 44.528 87.3915 45.9454 86.6104C48.8683 84.9995 51.8509 85.0352 54.8095 86.5036C56.2315 87.2088 56.7462 88.5131 56.8887 90.2006Z" fill="#3C5174"/>
<path d="M72.9634 90.1751C74.7554 89.7153 75.3259 89.9042 76.1325 91.1117C77.3788 92.9781 77.337 93.9797 75.9336 95.8871C75.2601 96.8021 74.5263 96.9863 72.9998 96.535C73.4108 95.8004 73.763 95.0658 74.2128 94.3954C74.7004 93.6678 74.6702 93.0268 74.1934 92.3131C73.7591 91.6629 73.4085 90.9569 72.9634 90.1743V90.1751Z" fill="white"/>
<path d="M69.5125 90.0412C70.7007 90.0435 71.6985 89.6324 72.4091 90.6844C73.3705 92.1088 74.311 93.4085 73.0307 95.2585C72.1622 96.5133 71.2627 96.984 69.641 96.5156C70.0288 95.8043 70.3446 95.0681 70.8005 94.4326C71.3439 93.6763 71.3037 93.0268 70.8029 92.2845C70.367 91.6397 70.021 90.9345 69.5132 90.0412H69.5125Z" fill="white"/>
<path d="M115.256 91.923C115.502 93.1166 115.489 94.3529 115.191 95.5341C115.15 95.6959 115.104 95.8561 115.05 96.0125C114.705 97.0041 113.899 97.4771 112.858 97.4446C111.864 97.4136 111.146 96.9159 110.804 95.9668C110.25 94.4318 110.246 92.8898 110.778 91.3401C111.131 90.3129 111.911 89.8175 112.907 89.7958C113.968 89.7726 114.807 90.3175 115.121 91.3757C115.174 91.5553 115.219 91.738 115.256 91.9222L115.256 91.923Z" fill="white"/>
<path d="M24.1811 79.8054L20.8579 81.7221V101.406H24.1811V79.8054Z" fill="#3C5174"/>
<path d="M59.4586 82.2337L62.7818 80.444V85.5569H64.3795V87.7932H62.9095V101.406H59.4586V87.8575H57.9329V85.8766H59.4586V82.2337Z" fill="#3C5174"/>
<path d="M140.047 79.7683L143.115 78.234L145.735 79.7683V82.8994L142.891 84.5181L140.047 83.0272V79.7683Z" fill="#EC7625"/>
<path d="M145.703 86.0159H140.079V101.226H145.703V86.0159Z" fill="#3C5174"/>
</svg>
